<svg width="655" height="144" viewBox="0 0 655 144" fill="none" xmlns="http://www.w3.org/2000/svg">
<g clip-path="url(#clip0)">
<path d="M234.454 32.4388C237.114 18.8241 249.043 9 262.915 9H625.154C643.445 9 657.168 25.7264 653.595 43.6651L640.648 108.665C637.946 122.231 626.039 132 612.207 132H250.215C231.967 132 218.254 115.348 221.753 97.4388L234.454 32.4388Z" fill="#EB2A2E"/>
<path d="M263.375 40.7812H281.047C282.703 40.7812 284.125 41.3907 285.312 42.6095C286.469 43.7657 287.047 45.0938 287.047 46.5938C287.047 47 287 47.4531 286.906 47.9531L282.594 71.7657C282.281 73.547 281.438 75.0156 280.062 76.1719C278.688 77.3281 277.109 77.9062 275.328 77.9062H264.781L259.297 108.047H251.188L263.375 40.7812ZM272.609 70.3125C273.297 70.3125 273.906 70.0938 274.438 69.6562C274.938 69.25 275.25 68.7188 275.375 68.0625L278.703 50.5781V50.297C278.703 49.7345 278.516 49.2656 278.141 48.8906C277.766 48.5469 277.312 48.375 276.781 48.375H270.078L266 70.3125H272.609ZM275.328 108L297.5 40.7812H305.562L303.453 108H295.812L296.375 96.9375H287.188L283.906 108H275.328ZM296.75 89.3439L298.25 59.5781L289.438 89.3439H296.75ZM319.672 40.7812H337.344C339 40.7812 340.422 41.3907 341.609 42.6095C342.766 43.7657 343.344 45.0938 343.344 46.5938C343.344 47 343.297 47.4531 343.203 47.9531L339.266 69.1407C338.703 72.0782 336.969 73.9532 334.062 74.7657C335.156 75.172 335.984 75.8906 336.547 76.9219C336.984 77.7344 337.203 78.6407 337.203 79.6407C337.203 79.8595 337.188 80.0939 337.156 80.3439C337.156 80.8126 337.141 81.1719 337.109 81.4219L333.406 101.859C333.094 103.641 332.25 105.109 330.875 106.266C329.5 107.422 327.922 108 326.141 108H307.484L319.672 40.7812ZM322.391 70.3125H328.906C329.594 70.3125 330.203 70.0781 330.734 69.6094C331.234 69.1719 331.547 68.6251 331.672 67.9689L335 50.5781V50.297C335 49.7345 334.812 49.2656 334.438 48.8906C334.062 48.5469 333.609 48.375 333.078 48.375H326.375L322.391 70.3125ZM316.953 100.406H323.422C324.109 100.406 324.719 100.188 325.25 99.75C325.75 99.3438 326.062 98.8125 326.188 98.1562L329.375 80.4844V80.25C329.375 79.7188 329.188 79.2657 328.812 78.8907C328.438 78.5157 327.984 78.3282 327.453 78.3282H320.938L316.953 100.406ZM347.656 100.5H357.594L356.234 108H338L350.188 40.7812H358.344L347.656 100.5ZM360.828 101.859V100.688L370.484 46.875C370.797 45.125 371.656 43.6719 373.062 42.5156C374.469 41.3594 376.047 40.7812 377.797 40.7812H389.188C390.812 40.7812 392.203 41.375 393.359 42.5625C394.547 43.75 395.141 45.2032 395.141 46.922C395.141 47.3595 395.109 47.7031 395.047 47.9531L385.391 101.859C385.078 103.609 384.203 105.078 382.766 106.266C381.359 107.422 379.766 108 377.984 108H366.781C365.125 108 363.719 107.406 362.562 106.219C361.406 105 360.828 103.547 360.828 101.859ZM369.078 98.1562V98.3907C369.078 98.922 369.266 99.3906 369.641 99.7969C370.016 100.203 370.484 100.406 371.047 100.406H375.359C376.984 100.406 377.938 99.625 378.219 98.0625L386.797 50.5781V50.297C386.797 49.7345 386.609 49.2656 386.234 48.8906C385.859 48.5469 385.391 48.375 384.828 48.375H380.469C379.812 48.375 379.203 48.5938 378.641 49.0312C378.109 49.4376 377.781 49.9531 377.656 50.5781L369.078 98.1562ZM414.406 40.7812H422.047L419.703 89.2032L433.953 40.7812H442.531L420.406 108H411.828L414.406 40.7812ZM427.953 108L450.125 40.7812H458.188L456.078 108H448.438L449 96.9375H439.812L436.531 108H427.953ZM449.375 89.3439L450.875 59.5781L442.062 89.3439H449.375ZM460.062 108L472.297 40.7812H480.359L475.109 69.6094H483.781L489.031 40.7812H497.094L484.906 108H476.797L482.422 77.1094H473.75L468.172 108H460.062ZM488.891 108L511.062 40.7812H519.125L517.016 108H509.375L509.938 96.9375H500.75L497.469 108H488.891ZM510.312 89.3439L511.812 59.5781L503 89.3439H510.312ZM521 108L533.188 40.7812H541.297C543.734 65.0312 544.953 82.1406 544.953 92.1094C545.266 83.2969 547.703 66.1875 552.266 40.7812H560.375L548.188 108H540.078C537.672 83.8438 536.469 67.1406 536.469 57.8906C536.156 65.6406 533.719 82.3438 529.156 108H521ZM561.922 108H553.812L566.047 40.7812H574.109L561.922 108ZM565.953 108L588.125 40.7812H596.188L594.078 108H586.438L587 96.9375H577.812L574.531 108H565.953ZM587.375 89.3439L588.875 59.5781L580.062 89.3439H587.375ZM598.062 108L610.25 40.7812H618.359C620.797 65.0312 622.016 82.1406 622.016 92.1094C622.328 83.2969 624.766 66.1875 629.328 40.7812H637.438L625.25 108H617.141C614.734 83.8438 613.531 67.1406 613.531 57.8906C613.219 65.6406 610.781 82.3438 606.219 108H598.062Z" fill="white"/>
<g filter="url(#filter0_d)">
<path d="M1.43579 81.5553L1.48762 80.5639L1.64185 79.5853L1.89445 78.6195L2.24411 77.6786L2.68816 76.7384L3.22526 75.8232L3.85013 74.9335L4.56272 74.0565L5.35908 73.2049L6.23785 72.3788L7.19641 71.5653L8.23072 70.79L9.3409 70.0274L10.5214 69.3029L11.7725 68.6039L13.09 67.9303L14.4713 67.2947L15.9151 66.6847L17.4188 66.1127L18.9782 65.579L20.5936 65.0833L22.2595 64.6129L23.9758 64.1935L25.7374 63.7995L27.5455 63.4564L29.3934 63.1513L31.2826 62.8972L33.2077 62.6811L35.1674 62.5158L37.1589 62.3887L39.1797 62.3125L41.2271 62.2871C63.242 62.2871 81.0492 70.9171 81.0492 81.5553C81.0492 92.2316 63.2366 100.823 41.2271 100.823C19.2494 100.823 1.43579 92.2316 1.43579 81.5553Z" fill="#6EB92B"/>
</g>
<g filter="url(#filter1_d)">
<path d="M75.0039 117.23L75.0585 116.188L75.2206 115.161L75.4865 114.148L75.8534 113.151L76.3204 112.172L76.8841 111.212L77.5422 110.271L78.2903 109.352L79.1283 108.449L80.0517 107.585L81.0582 106.733L82.1456 105.908L83.3116 105.12L84.5538 104.357L85.8686 103.62L87.2522 102.921L88.7046 102.248L90.2226 101.612L91.8019 101.014L93.4409 100.443L95.1388 99.9209L96.8896 99.4256L98.6926 98.9808L100.545 98.5737L102.446 98.2178L104.387 97.9004L106.368 97.6207L108.402 97.4043L110.462 97.2264L112.549 97.0869L114.677 97.0108L116.831 96.9851C139.924 96.9851 158.683 106.047 158.683 117.23C158.683 128.401 139.924 137.472 116.831 137.472C93.7258 137.472 75.0039 128.406 75.0039 117.23Z" fill="#FFE100"/>
</g>
<g filter="url(#filter2_d)">
<path d="M92.1586 72.8617L94.0356 72.7474L95.8876 72.544L97.7102 72.2644L99.5034 71.8958L101.262 71.4509L102.991 70.9298L104.679 70.3197L106.328 69.6461L107.936 68.8962L109.505 68.0828L111.021 67.1931L112.497 66.2526L113.919 65.2358L115.289 64.1554L116.605 63.0242L117.854 61.8422L119.064 60.5966L120.194 59.2875L121.271 57.9402L122.281 56.5422L123.225 55.1059L124.09 53.6189L124.888 52.081L125.605 50.5176L126.257 48.9035L126.828 47.2639L127.307 45.5862L127.719 43.8703L128.039 42.129L128.264 40.3624L128.397 38.5703L128.45 36.7655C128.45 16.8236 111.513 0.631104 90.6518 0.631104C69.9306 0.631104 53.0993 16.5439 52.8547 36.3206C53.3427 36.2952 53.8306 36.2952 54.3557 36.2952C75.2113 36.2952 92.1525 52.4495 92.1525 72.4296V72.8617" fill="#00A7EB"/>
</g>
<g filter="url(#filter3_d)">
<path d="M165.255 108.746L167.089 108.632L168.884 108.441L170.666 108.161L172.407 107.805L174.122 107.361L175.797 106.853L177.446 106.268L179.055 105.607L180.624 104.883L182.139 104.082L183.628 103.218L185.051 102.303L186.434 101.311L187.763 100.268L189.053 99.1633L190.275 98.0068L191.432 96.7862L192.549 95.5279L193.586 94.2063L194.57 92.8462L195.487 91.4484L196.325 89.9993L197.109 88.4998L197.814 86.9746L198.438 85.4109L198.984 83.8096L199.462 82.1698L199.848 80.5051L200.167 78.8148L200.38 77.0861L200.513 75.3447L200.566 73.578C200.566 54.1445 184.12 38.3842 163.779 38.3842C143.624 38.3842 127.245 53.903 127.006 73.1458C127.484 73.1204 127.976 73.1204 128.468 73.1204C148.756 73.1204 165.255 88.8805 165.255 108.314V108.746Z" fill="#E60012"/>
</g>
</g>
<defs>
<filter id="filter0_d" x="-2.56421" y="62.2871" width="87.6134" height="46.5359" filterUnits="userSpaceOnUse" color-interpolation-filters="sRGB">
<feFlood flood-opacity="0" result="BackgroundImageFix"/>
<feColorMatrix in="SourceAlpha" type="matrix" values="0 0 0 0 0 0 0 0 0 0 0 0 0 0 0 0 0 0 127 0"/>
<feOffset dy="4"/>
<feGaussianBlur stdDeviation="2"/>
<feColorMatrix type="matrix" values="0 0 0 0 0 0 0 0 0 0 0 0 0 0 0 0 0 0 0.25 0"/>
<feBlend mode="normal" in2="BackgroundImageFix" result="effect1_dropShadow"/>
<feBlend mode="normal" in="SourceGraphic" in2="effect1_dropShadow" result="shape"/>
</filter>
<filter id="filter1_d" x="71.0039" y="96.9851" width="91.6791" height="48.4869" filterUnits="userSpaceOnUse" color-interpolation-filters="sRGB">
<feFlood flood-opacity="0" result="BackgroundImageFix"/>
<feColorMatrix in="SourceAlpha" type="matrix" values="0 0 0 0 0 0 0 0 0 0 0 0 0 0 0 0 0 0 127 0"/>
<feOffset dy="4"/>
<feGaussianBlur stdDeviation="2"/>
<feColorMatrix type="matrix" values="0 0 0 0 0 0 0 0 0 0 0 0 0 0 0 0 0 0 0.25 0"/>
<feBlend mode="normal" in2="BackgroundImageFix" result="effect1_dropShadow"/>
<feBlend mode="normal" in="SourceGraphic" in2="effect1_dropShadow" result="shape"/>
</filter>
<filter id="filter2_d" x="48.8547" y="0.631104" width="83.5953" height="80.2306" filterUnits="userSpaceOnUse" color-interpolation-filters="sRGB">
<feFlood flood-opacity="0" result="BackgroundImageFix"/>
<feColorMatrix in="SourceAlpha" type="matrix" values="0 0 0 0 0 0 0 0 0 0 0 0 0 0 0 0 0 0 127 0"/>
<feOffset dy="4"/>
<feGaussianBlur stdDeviation="2"/>
<feColorMatrix type="matrix" values="0 0 0 0 0 0 0 0 0 0 0 0 0 0 0 0 0 0 0.25 0"/>
<feBlend mode="normal" in2="BackgroundImageFix" result="effect1_dropShadow"/>
<feBlend mode="normal" in="SourceGraphic" in2="effect1_dropShadow" result="shape"/>
</filter>
<filter id="filter3_d" x="123.006" y="38.3842" width="81.56" height="78.3619" filterUnits="userSpaceOnUse" color-interpolation-filters="sRGB">
<feFlood flood-opacity="0" result="BackgroundImageFix"/>
<feColorMatrix in="SourceAlpha" type="matrix" values="0 0 0 0 0 0 0 0 0 0 0 0 0 0 0 0 0 0 127 0"/>
<feOffset dy="4"/>
<feGaussianBlur stdDeviation="2"/>
<feColorMatrix type="matrix" values="0 0 0 0 0 0 0 0 0 0 0 0 0 0 0 0 0 0 0.25 0"/>
<feBlend mode="normal" in2="BackgroundImageFix" result="effect1_dropShadow"/>
<feBlend mode="normal" in="SourceGraphic" in2="effect1_dropShadow" result="shape"/>
</filter>
<clipPath id="clip0">
<rect width="655" height="144" fill="white"/>
</clipPath>
</defs>
</svg>
