<svg width="655" height="144" viewBox="0 0 655 144" fill="none" xmlns="http://www.w3.org/2000/svg">
<g clip-path="url(#clip0)">
<path d="M239.091 40.1404C241.886 26.1064 254.203 16 268.513 16H626.297C645.264 16 659.471 33.3811 655.698 51.9689L643.516 111.969C640.678 125.951 628.384 136 614.116 136H256.564C237.642 136 223.446 118.697 227.142 100.14L239.091 40.1404Z" fill="#75B9FC"/>
<g filter="url(#filter0_di)">
<path d="M234.249 32.4388C236.909 18.8241 248.838 9 262.71 9H624.949C643.24 9 656.963 25.7264 653.39 43.6651L640.443 108.665C637.741 122.231 625.834 132 612.002 132H250.01C231.762 132 218.049 115.348 221.548 97.4388L234.249 32.4388Z" fill="#75B9FC"/>
<path d="M237.193 33.0141L237.193 33.0141C239.578 20.8078 250.273 12 262.71 12H624.949C641.347 12 653.651 26.996 650.447 43.0791L637.5 108.079C635.078 120.242 624.403 129 612.002 129H250.01C233.649 129 221.355 114.071 224.492 98.0141C224.492 98.0141 224.492 98.0141 224.492 98.014L237.193 33.0141Z" stroke="#444444" stroke-width="6"/>
</g>
<g filter="url(#filter1_d)">
<path d="M1.43579 81.5553L1.48762 80.5639L1.64185 79.5853L1.89445 78.6195L2.24411 77.6786L2.68816 76.7384L3.22526 75.8232L3.85013 74.9335L4.56272 74.0565L5.35908 73.2049L6.23785 72.3788L7.19641 71.5653L8.23072 70.79L9.3409 70.0274L10.5214 69.3029L11.7725 68.6039L13.09 67.9303L14.4713 67.2947L15.9151 66.6847L17.4188 66.1127L18.9782 65.579L20.5936 65.0833L22.2595 64.6129L23.9758 64.1935L25.7374 63.7995L27.5455 63.4564L29.3934 63.1513L31.2826 62.8972L33.2077 62.6811L35.1674 62.5158L37.1589 62.3887L39.1797 62.3125L41.2271 62.2871C63.242 62.2871 81.0492 70.9171 81.0492 81.5553C81.0492 92.2316 63.2366 100.823 41.2271 100.823C19.2494 100.823 1.43579 92.2316 1.43579 81.5553Z" fill="#6EB92B"/>
</g>
<g filter="url(#filter2_d)">
<path d="M75.0039 117.23L75.0585 116.188L75.2206 115.161L75.4865 114.148L75.8534 113.151L76.3204 112.172L76.8841 111.212L77.5422 110.271L78.2903 109.352L79.1283 108.449L80.0517 107.585L81.0582 106.733L82.1456 105.908L83.3116 105.12L84.5538 104.357L85.8686 103.62L87.2522 102.921L88.7046 102.248L90.2226 101.612L91.8019 101.014L93.4409 100.443L95.1388 99.9209L96.8896 99.4256L98.6926 98.9808L100.545 98.5737L102.446 98.2178L104.387 97.9004L106.368 97.6207L108.402 97.4043L110.462 97.2264L112.549 97.0869L114.677 97.0108L116.831 96.9851C139.924 96.9851 158.683 106.047 158.683 117.23C158.683 128.401 139.924 137.472 116.831 137.472C93.7258 137.472 75.0039 128.406 75.0039 117.23Z" fill="#FFE100"/>
</g>
<g filter="url(#filter3_d)">
<path d="M92.1586 72.8617L94.0356 72.7474L95.8876 72.544L97.7102 72.2644L99.5034 71.8958L101.262 71.4509L102.991 70.9298L104.679 70.3197L106.328 69.6461L107.936 68.8962L109.505 68.0828L111.021 67.1931L112.497 66.2526L113.919 65.2358L115.289 64.1554L116.605 63.0242L117.854 61.8422L119.064 60.5966L120.194 59.2875L121.271 57.9402L122.281 56.5422L123.225 55.1059L124.09 53.6189L124.888 52.081L125.605 50.5176L126.257 48.9035L126.828 47.2639L127.307 45.5862L127.719 43.8703L128.039 42.129L128.264 40.3624L128.397 38.5703L128.45 36.7655C128.45 16.8236 111.513 0.631104 90.6518 0.631104C69.9306 0.631104 53.0993 16.5439 52.8547 36.3206C53.3427 36.2952 53.8306 36.2952 54.3557 36.2952C75.2113 36.2952 92.1525 52.4495 92.1525 72.4296V72.8617" fill="#00A7EB"/>
</g>
<g filter="url(#filter4_d)">
<path d="M165.255 108.746L167.089 108.632L168.884 108.441L170.666 108.161L172.407 107.805L174.122 107.361L175.797 106.853L177.446 106.268L179.055 105.607L180.624 104.883L182.139 104.082L183.628 103.218L185.051 102.303L186.434 101.311L187.763 100.268L189.053 99.1633L190.275 98.0068L191.432 96.7862L192.549 95.5279L193.586 94.2063L194.57 92.8462L195.487 91.4484L196.325 89.9993L197.109 88.4998L197.814 86.9746L198.438 85.4109L198.984 83.8096L199.462 82.1698L199.848 80.5051L200.167 78.8148L200.38 77.0861L200.513 75.3447L200.566 73.578C200.566 54.1445 184.12 38.3842 163.779 38.3842C143.624 38.3842 127.245 53.903 127.006 73.1458C127.484 73.1204 127.976 73.1204 128.468 73.1204C148.756 73.1204 165.255 88.8805 165.255 108.314V108.746Z" fill="#E60012"/>
</g>
<path d="M241.471 42.2836C241.287 41.483 242.435 21.568 255.211 18.6342C267.986 15.7003 276.585 19.2053 276.769 20.006C276.953 20.8066 269.843 17.0181 257.068 19.952C244.292 22.8859 241.654 43.0843 241.471 42.2836Z" fill="#444444"/>
<path d="M630.719 95.024C631.017 95.7896 632.763 115.661 620.547 120.413C608.33 125.165 599.314 122.941 599.016 122.176C598.719 121.41 606.302 124.13 618.518 119.378C630.735 114.626 630.422 94.2584 630.719 95.024Z" fill="#444444"/>
<rect x="617" y="120.023" width="1.58256" height="6" rx="0.79128" transform="rotate(-0.839053 617 120.023)" fill="#444444"/>
<path d="M617.012 120.814C617.005 120.377 617.354 120.018 617.791 120.012V120.012C618.228 120.005 618.588 120.354 618.594 120.791L618.659 125.208C618.665 125.645 618.316 126.005 617.879 126.011V126.011C617.442 126.017 617.083 125.668 617.076 125.231L617.012 120.814Z" fill="#444444"/>
<path d="M613.012 122.791C613.005 122.354 613.354 121.995 613.791 121.988V121.988C614.228 121.982 614.588 122.331 614.594 122.768L614.659 127.185C614.665 127.622 614.316 127.981 613.879 127.988V127.988C613.442 127.994 613.083 127.645 613.076 127.208L613.012 122.791Z" fill="#444444"/>
<path d="M617.012 120.814C617.005 120.377 617.354 120.018 617.791 120.012V120.012C618.228 120.005 618.588 120.354 618.594 120.791L618.659 125.208C618.665 125.645 618.316 126.005 617.879 126.011V126.011C617.442 126.017 617.083 125.668 617.076 125.231L617.012 120.814Z" fill="#444444"/>
<path d="M613.012 122.791C613.005 122.354 613.354 121.995 613.791 121.988V121.988C614.228 121.982 614.588 122.331 614.594 122.768L614.659 127.185C614.665 127.622 614.316 127.981 613.879 127.988V127.988C613.442 127.994 613.083 127.645 613.076 127.208L613.012 122.791Z" fill="#444444"/>
<rect x="625" y="116.023" width="1.58256" height="6" rx="0.79128" transform="rotate(-0.839053 625 116.023)" fill="#444444"/>
<mask id="path-14-inside-1" fill="white">
<path d="M256.187 37H273.859C275.515 37 276.937 37.6094 278.124 38.8282C279.281 39.9844 279.859 41.3126 279.859 42.8126C279.859 43.2188 279.812 43.6719 279.718 44.1719L275.406 67.9844C275.093 69.7657 274.25 71.2344 272.874 72.3907C271.5 73.5469 269.921 74.125 268.14 74.125H257.593L252.109 104.266H244L256.187 37ZM265.421 66.5313C266.109 66.5313 266.718 66.3126 267.25 65.875C267.75 65.4688 268.062 64.9376 268.187 64.2813L271.515 46.7969V46.5157C271.515 45.9532 271.328 45.4844 270.953 45.1094C270.578 44.7657 270.124 44.5938 269.593 44.5938H262.89L258.812 66.5313H265.421ZM268.14 104.219L290.312 37H298.374L296.265 104.219H288.624L289.187 93.1563H280L276.718 104.219H268.14ZM289.562 85.5626L291.062 55.7969L282.25 85.5626H289.562ZM312.484 37H330.156C331.812 37 333.234 37.6094 334.421 38.8282C335.578 39.9844 336.156 41.3126 336.156 42.8126C336.156 43.2188 336.109 43.6719 336.015 44.1719L332.078 65.3594C331.515 68.2969 329.781 70.1719 326.874 70.9844C327.968 71.3907 328.796 72.1094 329.359 73.1407C329.796 73.9532 330.015 74.8594 330.015 75.8594C330.015 76.0782 330 76.3126 329.968 76.5626C329.968 77.0313 329.953 77.3907 329.921 77.6407L326.218 98.0778C325.906 99.8598 325.062 101.328 323.687 102.485C322.312 103.641 320.734 104.219 318.953 104.219H300.296L312.484 37ZM315.203 66.5313H321.718C322.406 66.5313 323.015 66.2969 323.546 65.8282C324.046 65.3907 324.359 64.8438 324.484 64.1876L327.812 46.7969V46.5157C327.812 45.9532 327.624 45.4844 327.25 45.1094C326.874 44.7657 326.421 44.5938 325.89 44.5938H319.187L315.203 66.5313ZM309.765 96.6248H316.234C316.921 96.6248 317.531 96.4068 318.062 95.9688C318.562 95.5626 318.874 95.0313 319 94.375L322.187 76.7032V76.4688C322.187 75.9376 322 75.4844 321.624 75.1094C321.25 74.7344 320.796 74.5469 320.265 74.5469H313.75L309.765 96.6248ZM340.468 96.7188H350.406L349.046 104.219H330.812L343 37H351.156L340.468 96.7188ZM353.64 98.0778V96.9068L363.296 43.0938C363.609 41.3438 364.468 39.8907 365.874 38.7344C367.281 37.5782 368.859 37 370.609 37H382C383.624 37 385.015 37.5938 386.171 38.7813C387.359 39.9688 387.953 41.4219 387.953 43.1407C387.953 43.5782 387.921 43.9219 387.859 44.1719L378.203 98.0778C377.89 99.8278 377.015 101.297 375.578 102.485C374.171 103.641 372.578 104.219 370.796 104.219H359.593C357.937 104.219 356.531 103.625 355.374 102.438C354.218 101.219 353.64 99.7658 353.64 98.0778ZM361.89 94.375V94.6094C361.89 95.1407 362.078 95.6094 362.453 96.0157C362.828 96.4218 363.296 96.6248 363.859 96.6248H368.171C369.796 96.6248 370.75 95.8438 371.031 94.2813L379.609 46.7969V46.5157C379.609 45.9532 379.421 45.4844 379.046 45.1094C378.671 44.7657 378.203 44.5938 377.64 44.5938H373.281C372.624 44.5938 372.015 44.8126 371.453 45.25C370.921 45.6563 370.593 46.1719 370.468 46.7969L361.89 94.375ZM407.218 37H414.859L412.515 85.4219L426.765 37H435.343L413.218 104.219H404.64L407.218 37ZM420.765 104.219L442.937 37H451L448.89 104.219H441.25L441.812 93.1563H432.624L429.343 104.219H420.765ZM442.187 85.5626L443.687 55.7969L434.874 85.5626H442.187ZM452.874 104.219L465.109 37H473.171L467.921 65.8282H476.593L481.843 37H489.906L477.718 104.219H469.609L475.234 73.3282H466.562L460.984 104.219H452.874ZM481.703 104.219L503.874 37H511.937L509.828 104.219H502.187L502.75 93.1563H493.562L490.281 104.219H481.703ZM503.124 85.5626L504.624 55.7969L495.812 85.5626H503.124ZM513.812 104.219L526 37H534.109C536.546 61.25 537.765 78.3594 537.765 88.3282C538.078 79.5157 540.515 62.4063 545.078 37H553.187L541 104.219H532.89C530.484 80.0626 529.281 63.3594 529.281 54.1094C528.968 61.8594 526.531 78.5626 521.968 104.219H513.812ZM554.734 104.219H546.624L558.859 37H566.921L554.734 104.219ZM558.765 104.219L580.937 37H589L586.89 104.219H579.25L579.812 93.1563H570.624L567.343 104.219H558.765ZM580.187 85.5626L581.687 55.7969L572.874 85.5626H580.187ZM590.874 104.219L603.062 37H611.171C613.609 61.25 614.828 78.3594 614.828 88.3282C615.14 79.5157 617.578 62.4063 622.14 37H630.25L618.062 104.219H609.953C607.546 80.0626 606.343 63.3594 606.343 54.1094C606.031 61.8594 603.593 78.5626 599.031 104.219H590.874Z"/>
</mask>
<path d="M256.187 37H273.859C275.515 37 276.937 37.6094 278.124 38.8282C279.281 39.9844 279.859 41.3126 279.859 42.8126C279.859 43.2188 279.812 43.6719 279.718 44.1719L275.406 67.9844C275.093 69.7657 274.25 71.2344 272.874 72.3907C271.5 73.5469 269.921 74.125 268.14 74.125H257.593L252.109 104.266H244L256.187 37ZM265.421 66.5313C266.109 66.5313 266.718 66.3126 267.25 65.875C267.75 65.4688 268.062 64.9376 268.187 64.2813L271.515 46.7969V46.5157C271.515 45.9532 271.328 45.4844 270.953 45.1094C270.578 44.7657 270.124 44.5938 269.593 44.5938H262.89L258.812 66.5313H265.421ZM268.14 104.219L290.312 37H298.374L296.265 104.219H288.624L289.187 93.1563H280L276.718 104.219H268.14ZM289.562 85.5626L291.062 55.7969L282.25 85.5626H289.562ZM312.484 37H330.156C331.812 37 333.234 37.6094 334.421 38.8282C335.578 39.9844 336.156 41.3126 336.156 42.8126C336.156 43.2188 336.109 43.6719 336.015 44.1719L332.078 65.3594C331.515 68.2969 329.781 70.1719 326.874 70.9844C327.968 71.3907 328.796 72.1094 329.359 73.1407C329.796 73.9532 330.015 74.8594 330.015 75.8594C330.015 76.0782 330 76.3126 329.968 76.5626C329.968 77.0313 329.953 77.3907 329.921 77.6407L326.218 98.0778C325.906 99.8598 325.062 101.328 323.687 102.485C322.312 103.641 320.734 104.219 318.953 104.219H300.296L312.484 37ZM315.203 66.5313H321.718C322.406 66.5313 323.015 66.2969 323.546 65.8282C324.046 65.3907 324.359 64.8438 324.484 64.1876L327.812 46.7969V46.5157C327.812 45.9532 327.624 45.4844 327.25 45.1094C326.874 44.7657 326.421 44.5938 325.89 44.5938H319.187L315.203 66.5313ZM309.765 96.6248H316.234C316.921 96.6248 317.531 96.4068 318.062 95.9688C318.562 95.5626 318.874 95.0313 319 94.375L322.187 76.7032V76.4688C322.187 75.9376 322 75.4844 321.624 75.1094C321.25 74.7344 320.796 74.5469 320.265 74.5469H313.75L309.765 96.6248ZM340.468 96.7188H350.406L349.046 104.219H330.812L343 37H351.156L340.468 96.7188ZM353.64 98.0778V96.9068L363.296 43.0938C363.609 41.3438 364.468 39.8907 365.874 38.7344C367.281 37.5782 368.859 37 370.609 37H382C383.624 37 385.015 37.5938 386.171 38.7813C387.359 39.9688 387.953 41.4219 387.953 43.1407C387.953 43.5782 387.921 43.9219 387.859 44.1719L378.203 98.0778C377.89 99.8278 377.015 101.297 375.578 102.485C374.171 103.641 372.578 104.219 370.796 104.219H359.593C357.937 104.219 356.531 103.625 355.374 102.438C354.218 101.219 353.64 99.7658 353.64 98.0778ZM361.89 94.375V94.6094C361.89 95.1407 362.078 95.6094 362.453 96.0157C362.828 96.4218 363.296 96.6248 363.859 96.6248H368.171C369.796 96.6248 370.75 95.8438 371.031 94.2813L379.609 46.7969V46.5157C379.609 45.9532 379.421 45.4844 379.046 45.1094C378.671 44.7657 378.203 44.5938 377.64 44.5938H373.281C372.624 44.5938 372.015 44.8126 371.453 45.25C370.921 45.6563 370.593 46.1719 370.468 46.7969L361.89 94.375ZM407.218 37H414.859L412.515 85.4219L426.765 37H435.343L413.218 104.219H404.64L407.218 37ZM420.765 104.219L442.937 37H451L448.89 104.219H441.25L441.812 93.1563H432.624L429.343 104.219H420.765ZM442.187 85.5626L443.687 55.7969L434.874 85.5626H442.187ZM452.874 104.219L465.109 37H473.171L467.921 65.8282H476.593L481.843 37H489.906L477.718 104.219H469.609L475.234 73.3282H466.562L460.984 104.219H452.874ZM481.703 104.219L503.874 37H511.937L509.828 104.219H502.187L502.75 93.1563H493.562L490.281 104.219H481.703ZM503.124 85.5626L504.624 55.7969L495.812 85.5626H503.124ZM513.812 104.219L526 37H534.109C536.546 61.25 537.765 78.3594 537.765 88.3282C538.078 79.5157 540.515 62.4063 545.078 37H553.187L541 104.219H532.89C530.484 80.0626 529.281 63.3594 529.281 54.1094C528.968 61.8594 526.531 78.5626 521.968 104.219H513.812ZM554.734 104.219H546.624L558.859 37H566.921L554.734 104.219ZM558.765 104.219L580.937 37H589L586.89 104.219H579.25L579.812 93.1563H570.624L567.343 104.219H558.765ZM580.187 85.5626L581.687 55.7969L572.874 85.5626H580.187ZM590.874 104.219L603.062 37H611.171C613.609 61.25 614.828 78.3594 614.828 88.3282C615.14 79.5157 617.578 62.4063 622.14 37H630.25L618.062 104.219H609.953C607.546 80.0626 606.343 63.3594 606.343 54.1094C606.031 61.8594 603.593 78.5626 599.031 104.219H590.874Z" fill="white" stroke="#444444" mask="url(#path-14-inside-1)"/>
</g>
<defs>
<filter id="filter0_di" x="217" y="9" width="440.958" height="131" filterUnits="userSpaceOnUse" color-interpolation-filters="sRGB">
<feFlood flood-opacity="0" result="BackgroundImageFix"/>
<feColorMatrix in="SourceAlpha" type="matrix" values="0 0 0 0 0 0 0 0 0 0 0 0 0 0 0 0 0 0 127 0"/>
<feOffset dy="4"/>
<feGaussianBlur stdDeviation="2"/>
<feColorMatrix type="matrix" values="0 0 0 0 0 0 0 0 0 0 0 0 0 0 0 0 0 0 0.25 0"/>
<feBlend mode="normal" in2="BackgroundImageFix" result="effect1_dropShadow"/>
<feBlend mode="normal" in="SourceGraphic" in2="effect1_dropShadow" result="shape"/>
<feColorMatrix in="SourceAlpha" type="matrix" values="0 0 0 0 0 0 0 0 0 0 0 0 0 0 0 0 0 0 127 0" result="hardAlpha"/>
<feOffset dy="4"/>
<feGaussianBlur stdDeviation="2"/>
<feComposite in2="hardAlpha" operator="arithmetic" k2="-1" k3="1"/>
<feColorMatrix type="matrix" values="0 0 0 0 0 0 0 0 0 0 0 0 0 0 0 0 0 0 0.25 0"/>
<feBlend mode="normal" in2="shape" result="effect2_innerShadow"/>
</filter>
<filter id="filter1_d" x="-2.56421" y="62.2871" width="87.6134" height="46.5359" filterUnits="userSpaceOnUse" color-interpolation-filters="sRGB">
<feFlood flood-opacity="0" result="BackgroundImageFix"/>
<feColorMatrix in="SourceAlpha" type="matrix" values="0 0 0 0 0 0 0 0 0 0 0 0 0 0 0 0 0 0 127 0"/>
<feOffset dy="4"/>
<feGaussianBlur stdDeviation="2"/>
<feColorMatrix type="matrix" values="0 0 0 0 0 0 0 0 0 0 0 0 0 0 0 0 0 0 0.25 0"/>
<feBlend mode="normal" in2="BackgroundImageFix" result="effect1_dropShadow"/>
<feBlend mode="normal" in="SourceGraphic" in2="effect1_dropShadow" result="shape"/>
</filter>
<filter id="filter2_d" x="71.0039" y="96.9851" width="91.6791" height="48.4869" filterUnits="userSpaceOnUse" color-interpolation-filters="sRGB">
<feFlood flood-opacity="0" result="BackgroundImageFix"/>
<feColorMatrix in="SourceAlpha" type="matrix" values="0 0 0 0 0 0 0 0 0 0 0 0 0 0 0 0 0 0 127 0"/>
<feOffset dy="4"/>
<feGaussianBlur stdDeviation="2"/>
<feColorMatrix type="matrix" values="0 0 0 0 0 0 0 0 0 0 0 0 0 0 0 0 0 0 0.25 0"/>
<feBlend mode="normal" in2="BackgroundImageFix" result="effect1_dropShadow"/>
<feBlend mode="normal" in="SourceGraphic" in2="effect1_dropShadow" result="shape"/>
</filter>
<filter id="filter3_d" x="48.8547" y="0.631104" width="83.5953" height="80.2306" filterUnits="userSpaceOnUse" color-interpolation-filters="sRGB">
<feFlood flood-opacity="0" result="BackgroundImageFix"/>
<feColorMatrix in="SourceAlpha" type="matrix" values="0 0 0 0 0 0 0 0 0 0 0 0 0 0 0 0 0 0 127 0"/>
<feOffset dy="4"/>
<feGaussianBlur stdDeviation="2"/>
<feColorMatrix type="matrix" values="0 0 0 0 0 0 0 0 0 0 0 0 0 0 0 0 0 0 0.25 0"/>
<feBlend mode="normal" in2="BackgroundImageFix" result="effect1_dropShadow"/>
<feBlend mode="normal" in="SourceGraphic" in2="effect1_dropShadow" result="shape"/>
</filter>
<filter id="filter4_d" x="123.006" y="38.3842" width="81.56" height="78.3619" filterUnits="userSpaceOnUse" color-interpolation-filters="sRGB">
<feFlood flood-opacity="0" result="BackgroundImageFix"/>
<feColorMatrix in="SourceAlpha" type="matrix" values="0 0 0 0 0 0 0 0 0 0 0 0 0 0 0 0 0 0 127 0"/>
<feOffset dy="4"/>
<feGaussianBlur stdDeviation="2"/>
<feColorMatrix type="matrix" values="0 0 0 0 0 0 0 0 0 0 0 0 0 0 0 0 0 0 0.25 0"/>
<feBlend mode="normal" in2="BackgroundImageFix" result="effect1_dropShadow"/>
<feBlend mode="normal" in="SourceGraphic" in2="effect1_dropShadow" result="shape"/>
</filter>
<clipPath id="clip0">
<rect width="655" height="144" fill="white"/>
</clipPath>
</defs>
</svg>
