<svg width="41" height="40" viewBox="0 0 41 40" fill="none" xmlns="http://www.w3.org/2000/svg">
<path d="M20.1601 23.3098C21.9054 23.3098 23.3202 21.8973 23.3202 20.1549C23.3202 18.4125 21.9054 17 20.1601 17C18.4149 17 17 18.4125 17 20.1549C17 21.8973 18.4149 23.3098 20.1601 23.3098Z" fill="#61DAFB"/>
<path d="M36.9243 20.0841C36.9243 17.8405 34.1099 15.7142 29.7951 14.3956C30.7908 10.005 30.3483 6.51186 28.3983 5.3935C27.9488 5.13117 27.4233 5.0069 26.8493 5.0069V6.54638C27.1674 6.54638 27.4233 6.60851 27.6376 6.72587C28.5781 7.26434 28.986 9.31468 28.668 11.9518C28.5919 12.6007 28.4674 13.2842 28.3153 13.9814C26.96 13.6501 25.4802 13.3946 23.9244 13.229C22.9909 11.9518 22.0228 10.792 21.0478 9.77721C23.302 7.68546 25.418 6.53948 26.8563 6.53948V5C24.9547 5 22.4653 6.35308 19.9483 8.70027C17.4313 6.36689 14.942 5.02762 13.0404 5.02762V6.56709C14.4718 6.56709 16.5946 7.70617 18.8489 9.78411C17.8808 10.7989 16.9127 11.9518 15.993 13.229C14.4303 13.3946 12.9505 13.6501 11.5952 13.9883C11.4361 13.298 11.3186 12.6284 11.2356 11.9863C10.9106 9.34919 11.3117 7.29886 12.2452 6.75349C12.4526 6.62922 12.7223 6.574 13.0404 6.574V5.03452C12.4595 5.03452 11.934 5.15878 11.4776 5.42111C9.53457 6.53948 9.0989 10.0257 10.1016 14.4026C5.80051 15.728 3 17.8474 3 20.0841C3 22.3277 5.81434 24.454 10.1292 25.7726C9.13347 30.1632 9.57607 33.6564 11.526 34.7747C11.9755 35.0371 12.501 35.1613 13.0819 35.1613C14.9835 35.1613 17.4728 33.8082 19.9898 31.461C22.5068 33.7944 24.9962 35.1337 26.8978 35.1337C27.4786 35.1337 28.0041 35.0094 28.4605 34.7471C30.4036 33.6287 30.8392 30.1425 29.8366 25.7657C34.1238 24.4471 36.9243 22.3208 36.9243 20.0841ZM27.9212 15.4795C27.6653 16.37 27.3472 17.2882 26.9876 18.2064C26.7041 17.6541 26.4068 17.1018 26.0818 16.5495C25.7637 15.9973 25.4249 15.4588 25.0861 14.9341C26.068 15.0791 27.0153 15.2586 27.9212 15.4795ZM24.7541 22.8317C24.2148 23.7637 23.6616 24.6473 23.0877 25.4688C22.0574 25.5586 21.0132 25.6069 19.9622 25.6069C18.918 25.6069 17.8739 25.5586 16.8505 25.4757C16.2765 24.6542 15.7164 23.7775 15.1771 22.8524C14.6516 21.9481 14.1744 21.0299 13.7388 20.1048C14.1675 19.1798 14.6516 18.2547 15.1702 17.3503C15.7095 16.4184 16.2627 15.5347 16.8366 14.7132C17.867 14.6235 18.9111 14.5751 19.9622 14.5751C21.0063 14.5751 22.0504 14.6235 23.0738 14.7063C23.6478 15.5278 24.2079 16.4046 24.7472 17.3296C25.2728 18.234 25.7499 19.1521 26.1855 20.0772C25.7499 21.0023 25.2728 21.9273 24.7541 22.8317ZM26.9876 21.9342C27.361 22.8593 27.6791 23.7844 27.9419 24.6818C27.0361 24.9027 26.0818 25.0891 25.093 25.2341C25.4318 24.7025 25.7706 24.1572 26.0887 23.598C26.4068 23.0457 26.7041 22.4865 26.9876 21.9342ZM19.976 29.3003C19.3329 28.6375 18.6898 27.8989 18.0537 27.0911C18.676 27.1188 19.3122 27.1395 19.9552 27.1395C20.6052 27.1395 21.2483 27.1257 21.8776 27.0911C21.2552 27.8989 20.6122 28.6375 19.976 29.3003ZM14.8313 25.2341C13.8494 25.0891 12.9021 24.9096 11.9963 24.6887C12.2521 23.7982 12.5702 22.88 12.9298 21.9619C13.2133 22.5141 13.5106 23.0664 13.8356 23.6187C14.1606 24.171 14.4925 24.7094 14.8313 25.2341ZM19.9414 10.868C20.5845 11.5307 21.2276 12.2694 21.8637 13.0771C21.2414 13.0495 20.6052 13.0288 19.9622 13.0288C19.3122 13.0288 18.6691 13.0426 18.0398 13.0771C18.6622 12.2694 19.3052 11.5307 19.9414 10.868ZM14.8244 14.9341C14.4856 15.4657 14.1468 16.0111 13.8287 16.5702C13.5106 17.1225 13.2133 17.6748 12.9298 18.2271C12.5564 17.302 12.2383 16.3769 11.9755 15.4795C12.8814 15.2655 13.8356 15.0791 14.8244 14.9341ZM8.56646 23.5773C6.1186 22.5349 4.5351 21.168 4.5351 20.0841C4.5351 19.0003 6.1186 17.6265 8.56646 16.591C9.16113 16.3355 9.81117 16.1077 10.4819 15.8937C10.876 17.2468 11.3947 18.6551 12.0377 20.0979C11.4016 21.5338 10.8899 22.9353 10.5026 24.2814C9.81807 24.0674 9.16805 23.8327 8.56646 23.5773ZM12.2867 33.4423C11.3463 32.9039 10.9383 30.8535 11.2564 28.2164C11.3324 27.5675 11.4569 26.884 11.609 26.1868C12.9643 26.5182 14.4441 26.7736 16 26.9393C16.9335 28.2164 17.9015 29.3762 18.8765 30.391C16.6223 32.4828 14.5063 33.6287 13.0681 33.6287C12.7569 33.6218 12.4941 33.5597 12.2867 33.4423ZM28.6887 28.1819C29.0137 30.819 28.6126 32.8694 27.6791 33.4147C27.4717 33.539 27.202 33.5942 26.8839 33.5942C25.4525 33.5942 23.3297 32.4552 21.0755 30.3772C22.0435 29.3624 23.0116 28.2095 23.9313 26.9324C25.494 26.7667 26.9738 26.5113 28.3291 26.173C28.4882 26.8702 28.6126 27.5399 28.6887 28.1819ZM31.3509 23.5773C30.7562 23.8327 30.1062 24.0605 29.4355 24.2745C29.0414 22.9214 28.5227 21.5131 27.8797 20.0703C28.5158 18.6344 29.0275 17.233 29.4148 15.8868C30.0993 16.1008 30.7493 16.3355 31.3578 16.591C33.8057 17.6334 35.3892 19.0003 35.3892 20.0841C35.3823 21.168 33.7988 22.5418 31.3509 23.5773Z" fill="#61DAFB"/>
</svg>
