<svg width="40" height="40" viewBox="0 0 40 40" fill="none" xmlns="http://www.w3.org/2000/svg">
<path d="M24.7754 23.9629C25.849 23.8518 26.6635 22.9263 26.6265 21.8156C26.5895 20.705 25.6639 19.8165 24.5533 19.8165H24.4792C23.3315 19.8535 22.443 20.8161 22.48 21.9637C22.5171 22.5191 22.7392 23.0003 23.0724 23.3335C21.8137 25.814 19.8885 27.628 17.0008 29.1459C15.0387 30.1825 13.0025 30.5528 10.9663 30.2936C9.3003 30.0715 8.00454 29.331 7.19006 28.1093C6.00536 26.2953 5.8943 24.3331 6.89389 22.371C7.5973 20.9641 8.70795 19.9275 9.41136 19.4092C9.26328 18.9279 9.04115 18.1135 8.93008 17.5211C3.56193 21.4084 4.11726 26.6655 5.74621 29.1459C6.96793 30.997 9.44838 32.1447 12.188 32.1447C12.9284 32.1447 13.6689 32.0707 14.4093 31.8855C19.1481 30.96 22.7392 28.1464 24.7754 23.9629Z" fill="#764ABC"/>
<path d="M31.2914 19.3721C28.4778 16.0772 24.3313 14.2631 19.5926 14.2631H19.0002C18.667 13.5967 17.9636 13.1525 17.1861 13.1525H17.1121C15.9644 13.1895 15.0759 14.1521 15.1129 15.2997C15.15 16.4104 16.0755 17.2989 17.1861 17.2989H17.2602C18.0747 17.2619 18.7781 16.7436 19.0743 16.0402H19.7406C22.5543 16.0402 25.2199 16.8546 27.6263 18.4466C29.4774 19.6683 30.8101 21.2602 31.5506 23.1853C32.1799 24.7403 32.1429 26.2582 31.4765 27.5539C30.4399 29.5161 28.6999 30.5897 26.4046 30.5897C24.9237 30.5897 23.5169 30.1454 22.7764 29.8122C22.3692 30.1825 21.6288 30.7748 21.1104 31.145C22.7024 31.8855 24.3313 32.2927 25.8862 32.2927C29.4403 32.2927 32.0689 30.3305 33.0685 28.3684C34.1421 26.2211 34.068 22.519 31.2914 19.3721Z" fill="#764ABC"/>
<path d="M12.4845 24.5921C12.5215 25.7028 13.447 26.5913 14.5577 26.5913H14.6317C15.7794 26.5543 16.6679 25.5917 16.6309 24.444C16.5939 23.3334 15.6683 22.4449 14.5577 22.4449H14.4836C14.4096 22.4449 14.2985 22.4449 14.2245 22.4819C12.7066 19.9644 12.0772 17.2248 12.2993 14.2631C12.4474 12.0418 13.1879 10.1166 14.4836 8.5247C15.5573 7.15489 17.6305 6.4885 19.0373 6.45148C22.9616 6.37744 24.6276 11.2643 24.7386 13.2265C25.2199 13.3375 26.0344 13.5967 26.5897 13.7818C26.1455 7.78426 22.4433 4.67444 18.8892 4.67444C15.5573 4.67444 12.4845 7.08085 11.2627 10.6349C9.55976 15.3737 10.6704 19.9274 12.7436 23.5185C12.5585 23.7776 12.4474 24.1849 12.4845 24.5921Z" fill="#764ABC"/>
</svg>
